<svg width="54" height="80" viewBox="0 0 54 80" fill="none" xmlns="http://www.w3.org/2000/svg">
<g clip-path="url(#clip0_611_5392)">
<path fill-rule="evenodd" clip-rule="evenodd" d="M40.2685 75.3271V66.0773V56.8275H41.7355H43.2022V66.0773V75.3271H41.7355H40.2685ZM17.238 61.3029C17.9412 61.167 18.1377 61.1403 18.9178 61.0755C19.1132 61.059 19.562 61.0535 19.915 61.0626C22.2704 61.1238 23.557 61.7553 24.1617 63.1469C24.281 63.4216 24.447 63.9692 24.4834 64.2092C24.4956 64.2898 24.5229 64.4297 24.5439 64.5205C24.5682 64.6249 24.5918 66.0634 24.6086 68.4586C24.6354 72.296 24.6433 72.5004 24.7799 72.8692C24.858 73.0806 24.953 73.1854 25.1303 73.2561C25.4355 73.3784 25.7283 73.363 26.5253 73.1843C26.5852 73.1711 26.5895 73.2366 26.5895 74.1733V75.1762L26.2721 75.2729C25.4269 75.5304 24.6682 75.6088 24.1271 75.4942C23.896 75.4451 23.4016 75.2681 23.3623 75.2205C23.3522 75.2084 23.2778 75.1553 23.1969 75.1033C22.8898 74.9048 22.5228 74.4813 22.3173 74.0887C22.2625 73.9839 22.1969 73.8985 22.1716 73.8985C22.1462 73.8985 22.0662 73.944 21.9937 73.9993C21.654 74.259 21.4116 74.4114 21.3746 74.3887C21.3515 74.3744 21.3442 74.3799 21.3576 74.4018C21.386 74.4476 21.3228 74.4905 20.8685 74.7333C19.8561 75.274 19.0748 75.5004 18.0977 75.5355C16.8798 75.5795 15.991 75.3557 15.1117 74.7835C14.8559 74.6172 14.8215 74.589 14.5237 74.3015C14.2951 74.081 13.9007 73.6077 13.9007 73.5539C13.9007 73.541 13.863 73.4692 13.817 73.3942C13.6771 73.1656 13.5446 72.7967 13.4592 72.3982C13.3878 72.0652 13.3804 71.9484 13.398 71.4297C13.411 71.0447 13.4394 70.7634 13.4796 70.6198C13.5136 70.4989 13.5471 70.3703 13.5542 70.3341C13.5811 70.196 13.8315 69.6623 14 69.3835C14.2114 69.0337 14.7554 68.4469 15.1161 68.1799C15.4761 67.9132 15.7713 67.7399 15.8173 67.7685C15.8384 67.7813 15.8456 67.7758 15.8333 67.7561C15.7866 67.6806 16.8805 67.2022 17.4029 67.0696C17.4231 67.0645 17.5056 67.0421 17.5863 67.0194C18.3177 66.8158 19.2071 66.7176 20.5518 66.6923L21.6838 66.6711L21.6656 65.8429C21.6456 64.9319 21.5983 64.6714 21.3803 64.2681C21.3217 64.1597 21.284 64.0542 21.2968 64.0337C21.3095 64.0132 21.3044 64.0059 21.2853 64.0176C21.2663 64.0293 21.1976 63.9846 21.1327 63.9183C20.988 63.7703 20.6619 63.5952 20.3918 63.5202C19.6061 63.3015 18.1882 63.3561 17.1646 63.6443C17.0133 63.6868 16.873 63.7257 16.8528 63.7304C16.4314 63.8278 15.6751 64.1359 14.9559 64.5029C14.7397 64.6132 14.5538 64.7037 14.5429 64.7037C14.5321 64.7037 14.5275 64.1077 14.5328 63.3791L14.5424 62.0546L14.7441 61.9846C15.6 61.6879 16.4521 61.455 17.238 61.3029ZM35.2993 61.0799C34.6126 61.1531 33.9705 61.3297 33.3892 61.6059C32.6945 61.9355 32.2746 62.2418 31.6434 62.8788C31.4078 63.1169 31.2056 63.3117 31.1942 63.3117C31.1829 63.3117 31.1736 62.8663 31.1736 62.3224V61.3333H29.7067H28.2398V68.3304V75.3271H29.7067H31.1736V70.8476V66.3685L31.2561 66.2546C31.5051 65.911 31.8212 65.5531 32.2215 65.1616C32.4687 64.9198 32.6941 64.7033 32.7225 64.681C33.6388 63.9506 34.5741 63.6414 35.721 63.6894C35.9933 63.7007 36.2533 63.7213 36.2986 63.7348L36.3811 63.7597V64.704C36.3811 65.5542 36.3872 65.6506 36.4427 65.6718C36.4765 65.6846 36.9962 65.6934 37.5979 65.6912L38.6914 65.6868V63.5502V61.4139L38.5172 61.3729C37.4695 61.1249 36.072 60.9978 35.2993 61.0799ZM48.8065 61.9927C48.976 61.7909 49.2093 61.5344 49.3429 61.4033C49.4107 61.3366 49.4885 61.3333 51.041 61.3333H52.6683L52.3668 61.6722C52.201 61.8586 51.9567 62.1333 51.8239 62.2828C51.6907 62.4326 51.5616 62.5755 51.5362 62.6007C51.5109 62.626 51.4904 62.655 51.4904 62.6652C51.4904 62.6751 51.4449 62.7304 51.3895 62.7883C51.2534 62.93 50.9911 63.226 50.8117 63.4396C50.7314 63.5359 50.6477 63.633 50.6261 63.6553C50.5762 63.7077 50.3095 64.0143 50.0967 64.2641C50.0061 64.3703 49.8143 64.5832 49.6705 64.7363C49.527 64.8898 49.2739 65.1714 49.1077 65.363C48.9419 65.5546 48.79 65.7066 48.7702 65.7011C48.7504 65.6953 48.7427 65.7044 48.753 65.7205C48.7702 65.7487 48.3971 66.1912 47.8039 66.8465C47.3993 67.2934 47.1264 67.6205 47.1264 67.6583C47.1264 67.692 47.2133 67.7934 47.5787 68.1854C47.6829 68.2971 47.859 68.4931 47.9698 68.6213C48.0805 68.7495 48.2291 68.9143 48.2999 68.9872C48.3703 69.0601 48.527 69.2341 48.6481 69.374C48.7691 69.5136 48.9144 69.6769 48.9705 69.737C49.5798 70.3872 49.7732 70.6187 49.738 70.6575C49.7237 70.6733 49.7288 70.6769 49.7497 70.6648C49.7919 70.641 49.8594 70.7077 50.3348 71.2425C50.5138 71.444 50.7053 71.6583 50.7604 71.7187C50.8158 71.7791 51.0304 72.0183 51.2376 72.2498C51.4449 72.4817 51.7076 72.7703 51.8217 72.8912C51.9354 73.0121 52.1016 73.1934 52.1903 73.2942C52.2795 73.3949 52.3606 73.4854 52.3705 73.4956C52.3807 73.5055 52.5289 73.6703 52.7006 73.8612C52.8719 74.0524 53.0502 74.2502 53.0968 74.3007C53.2443 74.4616 53.6038 74.8612 53.8056 75.089L54 75.3088L52.0403 75.3183L50.0806 75.3278L49.9511 75.1865C49.8799 75.1084 49.673 74.8766 49.4918 74.6711C49.3102 74.4652 49.1147 74.2443 49.0575 74.1802C48.6517 73.726 48.4129 73.4634 48.3183 73.3674C48.2577 73.3059 48.1612 73.1985 48.1037 73.1286C48.0464 73.0583 47.8381 72.8279 47.6407 72.6161C47.4437 72.4044 47.2203 72.1572 47.1447 72.0667C47.0691 71.9762 46.8648 71.7465 46.6909 71.5568C46.5167 71.367 46.3413 71.1755 46.301 71.1308C46.261 71.0861 46.1535 70.9678 46.0629 70.8681C45.9719 70.7681 45.7903 70.5656 45.6593 70.418C45.2349 69.9396 45.0937 69.7839 44.9444 69.6311C44.8637 69.5487 44.7004 69.3663 44.5819 69.2264C44.4634 69.0861 44.2308 68.8231 44.065 68.6418C43.8992 68.4605 43.704 68.2447 43.631 68.1623L43.4982 68.0128L43.6164 67.8832C43.7543 67.7311 43.8787 67.5879 44.2606 67.1421C44.4146 66.9623 44.5904 66.763 44.6509 66.6996C44.8306 66.5114 45.276 66.0139 45.3886 65.8758C45.5196 65.715 46.3233 64.8081 46.3787 64.7586C46.4011 64.7385 46.6707 64.4333 46.9778 64.081C47.2845 63.7282 47.5893 63.3821 47.6546 63.3117C47.7203 63.241 47.8868 63.0513 48.0251 62.8901C48.1634 62.729 48.3065 62.5641 48.3428 62.5238C48.4958 62.3561 48.647 62.1824 48.8065 61.9927ZM17.4367 69.3626C18.7448 68.8066 20.7866 68.7407 21.644 68.7773V71.759C21.3942 72.1103 20.0946 72.6982 19.4761 72.948C17.9181 73.5773 16.9039 72.6857 16.5915 72.1616C16.3282 71.4601 16.1285 69.9187 17.4367 69.3626ZM0 70.5513C0 65.3667 0.0110166 61.1139 0.0244935 61.1004C0.0379339 61.0868 1.78546 61.0762 3.90785 61.0766C7.94985 61.0773 8.06346 61.0813 8.7582 61.2414C9.0851 61.3165 9.5901 61.5169 9.85548 61.6762C10.9569 62.3377 11.7735 63.6923 12.1152 65.4249C12.3598 66.6648 12.3931 68.1026 12.2072 69.3909C12.0392 70.555 11.6061 71.8055 11.0787 72.6495C10.71 73.2392 10.1154 73.9286 9.71296 74.2326C9.65239 74.2784 9.57953 74.3385 9.55103 74.3659C9.49787 74.4169 9.25616 74.5777 9.12541 74.6487C9.08502 74.6707 8.92387 74.7583 8.76737 74.8436C8.61084 74.9289 8.48277 74.9876 8.48277 74.974C8.48277 74.9608 8.46208 74.9667 8.43677 74.9876C8.3529 75.0572 7.64518 75.2476 7.25764 75.3051C6.55865 75.4084 5.6857 75.3641 5.10436 75.1953C4.41311 74.9942 3.70017 74.5974 3.18721 74.1278C3.09214 74.0407 2.99747 73.9696 2.97687 73.9696C2.95168 73.9696 2.93941 74.952 2.93949 76.9641L2.93956 79.9586L1.46976 79.9681L0 79.9777V70.5513ZM2.8981 71.3224V63.4257H6.88276C7.35229 63.3707 8.42477 63.7692 8.95853 65.8018C9.4923 67.8348 8.89676 70.2319 8.53226 71.1762C8.4087 71.6758 7.79834 72.7374 6.34529 72.9857C4.89228 73.2344 3.44174 71.9806 2.8981 71.3224Z" fill="#EA5A06"/>
<path fill-rule="evenodd" clip-rule="evenodd" d="M0 45.2553L7.13424 52.3802L52.4959 52.381V7.15542L52.4105 7.07542C52.3635 7.03143 52.3114 7.00795 52.2945 7.02326C52.2777 7.03854 52.2755 7.03128 52.289 7.00711C52.3165 6.9593 52.07 6.71454 52.0117 6.73147C51.9922 6.737 51.9867 6.72546 51.9988 6.70582C52.0242 6.6648 51.7707 6.42322 51.7182 6.43843C51.6988 6.44396 51.6933 6.43242 51.7054 6.41278C51.7277 6.37674 51.4882 6.13531 51.4302 6.13531C51.413 6.13531 51.3774 6.11227 51.3514 6.08414C51.3161 6.04645 51.3158 6.03978 51.3495 6.05883C51.4368 6.10813 51.3947 6.0385 51.2776 5.94062C51.2131 5.88652 51.1459 5.84681 51.1283 5.85234C51.1107 5.85788 51.1063 5.84634 51.1184 5.8267C51.1437 5.78568 50.8902 5.5441 50.8378 5.5593C50.8183 5.56484 50.8128 5.5533 50.8249 5.53366C50.8502 5.49264 50.5968 5.25106 50.5443 5.26626C50.5249 5.27179 50.5193 5.26026 50.5315 5.24062C50.5568 5.1996 50.3033 4.95802 50.2508 4.97322C50.2314 4.97875 50.2259 4.96722 50.238 4.94758C50.2604 4.91154 50.0208 4.67011 49.9628 4.67011C49.9456 4.67011 49.91 4.64707 49.884 4.61894C49.8488 4.58125 49.8484 4.57458 49.8821 4.59363C49.9694 4.64293 49.9273 4.5733 49.8102 4.47542C49.7457 4.42132 49.6785 4.38161 49.6609 4.38714C49.6433 4.39267 49.6389 4.38114 49.651 4.3615C49.6763 4.32048 49.4228 4.0789 49.3704 4.0941C49.3509 4.09963 49.3454 4.0881 49.3575 4.06846C49.3799 4.03242 49.1404 3.79099 49.0824 3.79099C49.0652 3.79099 49.0296 3.76795 49.0035 3.73982C48.9683 3.70212 48.968 3.69546 49.0017 3.71451C49.0266 3.72872 49.0476 3.73007 49.0476 3.71751C49.0476 3.68747 48.8212 3.49795 48.7856 3.49795C48.7702 3.49795 48.7361 3.47491 48.7101 3.44678C48.6748 3.40908 48.6745 3.40242 48.7082 3.42147C48.7332 3.43568 48.7541 3.43703 48.7541 3.42447C48.7541 3.39443 48.5277 3.20491 48.4921 3.20491C48.4767 3.20491 48.4426 3.18187 48.4166 3.15374C48.3814 3.11604 48.381 3.10938 48.4147 3.12842C48.5021 3.17773 48.4599 3.1081 48.3428 3.01022C48.2783 2.95612 48.2111 2.91641 48.1935 2.92194C48.1759 2.92747 48.1715 2.91593 48.1836 2.8963C48.206 2.86026 47.9665 2.61883 47.9085 2.61883C47.8913 2.61883 47.8557 2.59579 47.8296 2.56766C47.7944 2.52996 47.794 2.5233 47.8278 2.54234C47.8527 2.55656 47.8736 2.55791 47.8736 2.54535C47.8736 2.51531 47.6473 2.32579 47.6117 2.32579C47.5963 2.32579 47.5622 2.30275 47.5361 2.27462C47.5009 2.23692 47.5006 2.23026 47.5343 2.2493C47.6216 2.29861 47.5794 2.22897 47.4624 2.1311C47.3978 2.077 47.3307 2.03729 47.3131 2.04282C47.2955 2.04835 47.2911 2.03681 47.3032 2.01718C47.3285 1.97615 47.075 1.73458 47.0226 1.74978C47.0031 1.75531 46.9976 1.74377 47.0097 1.72414C47.035 1.68311 46.7815 1.44154 46.7291 1.45674C46.7096 1.46227 46.7041 1.45073 46.7162 1.4311C46.7416 1.39007 46.4881 1.1485 46.4356 1.1637C46.4162 1.16923 46.4107 1.15769 46.4228 1.13806C46.4481 1.09703 46.1946 0.855458 46.1421 0.870659C46.1227 0.87619 46.1172 0.864652 46.1293 0.845018C46.1546 0.803993 45.9011 0.562418 45.8486 0.577619C45.8292 0.58315 45.8237 0.571612 45.8358 0.551978C45.8582 0.515934 45.6186 0.274505 45.5607 0.274505C45.5434 0.274505 45.5078 0.251465 45.4818 0.223333C45.4466 0.185641 45.4462 0.178974 45.48 0.198022C45.5603 0.243443 45.5291 0.182381 45.4249 0.0907326L45.3241 0.00201465L0 0V45.2553ZM22.561 12.8203H16.6915V6.70308H22.561V12.8203ZM22.5611 45.0919L16.7273 45.0729L16.7098 22.3624L11.9408 22.3535C9.31783 22.3485 7.15526 22.3444 7.13508 22.3443C7.11091 22.3442 7.10151 21.5656 7.10753 20.0639C7.11252 18.8098 7.11666 17.7642 7.1167 17.7404C7.1167 17.7166 7.15386 17.6919 7.19928 17.6855C7.24469 17.679 10.7155 17.6778 14.9123 17.6827L22.5427 17.6918L22.5611 45.0919ZM34.5747 39.5978C34.5637 39.6158 34.529 39.6205 34.4977 39.6084C34.4532 39.5916 34.4511 39.5802 34.4879 39.5575C34.5436 39.5231 34.6037 39.5509 34.5747 39.5978ZM34.5617 39.7341C34.6073 39.7923 34.606 39.7938 34.5478 39.748C34.4867 39.7004 34.4673 39.67 34.4975 39.67C34.505 39.67 34.534 39.6989 34.5617 39.7341Z" fill="#EA5A06"/>
<path d="M27.5774 35.6099V12.6517H33.5135V17.52H45.312V22.296H33.6476L33.756 38.3037C33.756 38.6956 34.1016 40.0216 36.7377 40.704C39.3023 41.3678 43.7819 40.7487 45.8098 40.2015V45.0143C45.8098 45.0143 39.3166 46.5161 32.7208 45.0143C28.2132 43.9879 27.5774 38.3293 27.5774 35.6099Z" fill="white"/>
<path d="M34.6207 39.5747C34.6207 39.6154 34.5796 39.648 34.529 39.648C34.4783 39.648 34.4373 39.6154 34.4373 39.5747C34.4373 39.5344 34.4783 39.5015 34.529 39.5015C34.5796 39.5015 34.6207 39.5344 34.6207 39.5747Z" fill="#EA5A06"/>
<path d="M22.5515 17.67H7.07056V22.3873H16.7138V45.692H22.5515V17.67Z" fill="white"/>
<path d="M16.6819 6.68103H22.5515V12.7982H16.6819V6.68103Z" fill="white"/>
</g>
<defs>
<clipPath id="clip0_611_5392">
<rect width="54" height="80" fill="white"/>
</clipPath>
</defs>
</svg>
