<svg width="107" height="28" viewBox="0 0 107 28" fill="none" xmlns="http://www.w3.org/2000/svg">
<path fill-rule="evenodd" clip-rule="evenodd" d="M0 6.33084L3.86368 0.677734H19.8336L19.8226 6.34139H12.8675L12.7925 22.8965L7.29906 27.4015L7.19995 6.34139H0V6.33084ZM100.713 0.677734L106.895 6.07388H99.9408V27.1445H94.2741V6.07388H87.0619V0.677734H100.713ZM53.2057 20.4932V27.3225H47.7118L47.6449 5.05422L52.8037 0.677734H57.8266C59.4141 0.677734 60.7987 1.04812 62.0024 1.53142C63.2066 1.98926 64.2049 2.65047 64.9991 3.51533C65.8186 4.38006 66.4205 5.41013 66.8047 6.6056C67.2147 7.7756 67.4192 9.07284 67.4192 10.4971C67.4192 11.9216 67.2269 13.2442 66.8432 14.4651C66.4845 15.6605 65.908 16.7161 65.1143 17.6318C64.3459 18.522 63.3472 19.2213 62.1176 19.7301C60.9143 20.2388 59.4802 20.4932 57.8152 20.4932H53.2057ZM57.8923 15.0374H53.2057V6.26234H57.969C58.2248 6.26234 58.5712 6.3513 59.0062 6.52934C59.2341 6.60476 59.456 6.70511 59.6712 6.83034C59.8914 6.95844 60.1053 7.1124 60.312 7.29242C60.7479 7.62303 61.1193 8.0682 61.4264 8.6278C61.4874 8.7338 61.5425 8.84372 61.5916 8.95778C61.6259 9.03746 61.6568 9.11899 61.6852 9.20255C61.8199 9.60216 61.8872 10.0464 61.8872 10.5354C61.8872 11.1966 61.7589 11.8072 61.5031 12.3666C61.362 12.6935 61.1922 12.9964 60.9935 13.2755C60.8677 13.4527 60.7301 13.6203 60.5814 13.7783C60.2227 14.1853 59.8 14.5032 59.3137 14.7321C58.8529 14.9356 58.379 15.0374 57.8923 15.0374ZM37.9024 1.83656C36.289 1.14987 34.5605 0.806465 32.716 0.806465L20.4232 8.97106C19.757 10.5736 19.4245 12.2903 19.4245 14.1217C19.4245 15.953 19.7701 17.6699 20.4613 19.2723C21.1788 20.8746 22.139 22.2736 23.3428 23.4691C24.5723 24.6646 26.0065 25.6056 27.6456 26.2924C29.2844 26.9791 31.026 27.3225 32.8701 27.3225C34.7139 27.297 36.4297 26.9409 38.0176 26.2542C39.6309 25.5419 41.0396 24.5881 42.2433 23.3928C43.4475 22.1718 44.3823 20.7602 45.0477 19.1579C45.7393 17.53 46.0849 15.8004 46.0849 13.9691C46.0849 12.1378 45.7262 10.4209 45.0095 8.8185C44.3175 7.21616 43.3573 5.82983 42.1281 4.65985C40.9244 3.46439 39.5157 2.52338 37.9024 1.83656ZM38.3251 19.6157C39.0675 18.8781 39.6309 18.0387 40.0155 17.0975C40.3996 16.1565 40.5915 15.1518 40.5915 14.0835C40.5915 13.0153 40.3996 12.0106 40.0155 11.0695C39.6309 10.1029 39.0417 9.25089 38.248 8.51324C36.7372 7.06347 34.8934 6.3386 32.716 6.3386C30.5135 6.3386 28.6698 7.1016 27.184 8.6278C25.6736 10.1284 24.918 11.9597 24.918 14.1217C24.918 15.1899 25.1225 16.1947 25.5325 17.1357C25.9425 18.0768 26.5186 18.9162 27.261 19.6538L27.3551 19.7458C27.5423 19.9261 27.735 20.0954 27.9336 20.2534C28.4965 20.7025 29.1048 21.0621 29.7583 21.3325C30.7058 21.714 31.705 21.9048 32.7549 21.9048C33.8816 21.8794 34.9184 21.6759 35.8663 21.2943C36.2941 21.1222 36.6957 20.9138 37.0709 20.6691C37.5275 20.3716 37.9456 20.0204 38.3251 19.6157ZM85.7738 27.1445H80.1071V7.87261H85.7738V27.1445ZM85.7738 6.33084V4.53212L82.9585 0.677734H80.1071V6.33084H85.7738Z" fill="black"/>
<path d="M36.5751 14.0397C36.5751 16.1683 34.8453 17.8941 32.7115 17.8941C30.5772 17.8941 28.8478 16.1683 28.8478 14.0397C28.8478 11.911 30.5772 10.1853 32.7115 10.1853C34.8453 10.1853 36.5751 11.911 36.5751 14.0397Z" fill="#5CE1E6"/>
</svg>
