<svg width="246" height="40" viewBox="0 0 246 40" fill="none" xmlns="http://www.w3.org/2000/svg">
<path fill-rule="evenodd" clip-rule="evenodd" d="M25.3591 0.143216C24.6553 0.482211 23.8427 1.48076 22.847 3.23051C22.2877 4.21345 22.2083 4.30933 21.9214 4.34896C12.4031 5.66531 2.26756 8.02516 0.899101 9.24362C0.378945 9.70674 0.00479605 11.3383 5.74856e-05 13.1648C-0.00320028 14.3992 0.13175 14.9786 0.470557 15.1848C0.686261 15.3162 0.795642 15.2797 2.51505 14.5024C6.12416 12.8708 9.86999 11.5214 14.796 10.0781C16.3869 9.61197 20.4887 8.60792 20.5541 8.66865C20.5733 8.68664 20.2108 9.76757 19.7483 11.0707C18.1241 15.6478 17.7097 17.068 17.6343 18.3166C17.4339 21.6358 20.2956 23.7702 25.9649 24.5302C30.9445 25.1976 39.1143 24.6303 44.9932 23.2091C48.7902 22.2911 53.2303 20.4449 54.8049 19.1293C55.6517 18.4216 55.8029 17.852 55.3718 16.9917C54.1769 14.6064 46.987 11.9189 39.7228 11.1424C37.9448 10.9523 34.8488 10.9995 33.7009 11.2343C32.1471 11.552 30.7786 12.4048 28.9624 14.1869C28.0123 15.1192 27.6513 15.6963 27.6976 16.2092C27.7737 17.0531 29.0527 17.1373 32.4518 16.5222C34.8872 16.0817 37.2366 15.7493 39.2786 15.5565C43.2742 15.1793 46.8657 15.1287 47.4957 15.441C48.1466 15.7637 48.001 16.2549 46.9705 17.2126C45.0375 19.009 40.7925 20.6936 36.0429 21.549C33.7896 21.9549 32.8277 22.0518 31.0355 22.0531C29.6913 22.054 29.2561 22.0194 28.5461 21.8551C26.6982 21.4275 25.5835 20.6679 24.958 19.4097C24.3645 18.2161 24.276 17.7129 24.2789 15.5501C24.2818 13.3336 24.421 12.3954 25.1749 9.51206C25.5752 7.98075 25.6521 7.7769 25.8559 7.70488C26.703 7.40552 31.796 6.63642 34.6388 6.37853C37.9414 6.07899 38.9271 6.03779 43.9493 5.98972C49.1341 5.94008 52.2808 6.01357 56.6775 6.28697C58.8279 6.42064 59.1836 6.39459 59.3075 6.09458C59.3975 5.87678 59.125 5.52292 58.7463 5.36558C57.9345 5.02842 50.1489 4.11052 44.955 3.73969C42.4696 3.56216 31.7389 3.59216 28.8169 3.78473C27.5696 3.86694 26.5386 3.92446 26.5257 3.91253C26.5129 3.90061 26.5916 3.50033 26.7005 3.02316C27.2001 0.833959 27.2067 0.647443 26.7981 0.267621C26.5678 0.0535816 26.4234 -0.000455834 26.0824 2.88815e-06C25.8474 0.000369866 25.522 0.0647744 25.3591 0.143216ZM167.911 7.23671C167.209 7.64479 166.33 8.77113 166.089 9.57197C165.978 9.93968 165.932 9.98381 165.606 10.0339C164.488 10.2057 160.663 10.0569 157.561 9.72096C154.658 9.40646 154.139 9.47683 154.139 10.1851C154.139 10.8622 154.83 11.3531 156.331 11.7436C157.802 12.1261 160.981 12.5015 163.813 12.6271C164.574 12.6608 165.196 12.7215 165.196 12.7617C165.196 12.802 165.044 13.6111 164.858 14.5596C164.356 17.1214 164.204 18.3736 164.142 20.4584C164.044 23.7182 164.392 25.1841 165.394 25.7276C166.106 26.1142 167.794 25.9071 169.219 25.2579C170.606 24.6263 170.773 24.1803 170.191 22.6603C168.102 17.199 168.108 17.2218 168.11 14.862C168.111 13.8781 168.144 12.9633 168.184 12.8293C168.277 12.5145 168.17 12.5222 174.13 12.3941C179.577 12.277 181.75 12.1719 183.068 11.9622C184.869 11.6758 185.73 11.1994 185.729 10.4904C185.728 9.28398 184.425 8.86921 180.646 8.87269C178.26 8.8749 176.521 8.99334 172.123 9.45279C170.694 9.60215 169.393 9.72436 169.234 9.72436C168.968 9.72436 168.949 9.70344 169.01 9.47802C169.047 9.34243 169.08 8.87802 169.084 8.4459C169.095 7.18964 168.697 6.77945 167.911 7.23671ZM77.3845 8.5037C72.5336 8.7426 65.1574 11.4775 61.4649 14.4062C59.6088 15.8783 58.4464 17.9014 58.6198 19.3575C58.8386 21.1937 61.0517 22.913 63.9027 23.4615C64.9717 23.6672 67.3409 23.659 68.5491 23.4453C70.6056 23.0815 72.7018 22.2742 74.571 21.1256C76.0723 20.2032 77.0034 19.4881 78.6217 18.0142C79.4108 17.2956 80.166 16.6692 80.2999 16.6222C80.7283 16.4722 80.9192 16.636 81.5205 17.6703C83.5179 21.1059 86.3079 24.6218 87.4415 25.1317C88.1577 25.454 88.8813 25.3199 89.7335 24.7069C90.2748 24.3175 92.3395 22.0276 92.5609 21.5711C92.9331 20.8038 92.6373 20.3064 91.2054 19.2914C89.6099 18.1604 89.2117 17.8222 88.1427 16.6901C86.2091 14.6427 84.9738 12.9383 84.7341 11.987C84.5787 11.3708 84.4938 11.284 84.0462 11.284C83.0611 11.284 80.8648 12.7595 78.4705 15.0301C76.147 17.2334 74.5279 18.4133 72.6013 19.3071C70.9625 20.0673 69.7879 20.3203 67.9568 20.3073C64.7903 20.2849 62.994 19.4104 63.1436 17.9639C63.2275 17.1527 63.829 16.2079 64.8894 15.222C65.9458 14.2398 66.6564 13.7751 68.1052 13.119C70.0131 12.255 71.7533 11.8338 73.4069 11.8356C74.4292 11.8367 74.8991 11.92 76.0025 12.2956C76.802 12.5677 77.9485 12.5154 78.7611 12.1697C79.6014 11.8122 80.6139 11.147 81.2271 10.5495C82.1399 9.66023 82.1712 9.31435 81.3679 8.99325C80.4541 8.62792 78.8543 8.43131 77.3845 8.5037ZM144.07 9.82858C138.253 10.2702 130.669 13.3143 128.322 16.1493C127.47 17.1774 127.227 18.0336 127.536 18.9097C127.675 19.3035 127.862 19.5426 128.462 20.0915C129.293 20.8527 130.415 21.4571 132.126 22.0652C136.572 23.6445 145.49 24.9392 151.296 24.8483C153.445 24.8147 153.803 24.7468 153.334 24.4615C152.967 24.2382 152.088 24.0634 149.796 23.7581C144.612 23.0677 140.596 22.1563 137.503 20.9685C135.619 20.2448 134.015 19.1122 133.525 18.1588C133.217 17.5608 133.232 16.7866 133.561 16.1718C133.958 15.4316 135.066 14.5184 136.179 14.0145C137.353 13.4827 138.822 13.0083 140.137 12.7364C142.496 12.2485 145.649 12.5836 145.649 13.3222C145.649 13.9996 142.848 15.5925 138.781 17.2277C136.303 18.2241 135.778 18.5348 136.182 18.7668C136.366 18.8725 137.58 18.8245 138.503 18.675C141.414 18.2033 144.56 17.1974 147.772 15.7114C151.125 14.16 152.805 12.9115 152.931 11.878C152.979 11.4784 152.962 11.4422 152.54 11.0671C151.386 10.0391 147.938 9.5349 144.07 9.82858ZM227.737 9.91913C226.389 10.0151 225.405 10.1824 223.408 10.6547C220.513 11.3394 217.265 12.4382 215.118 13.4585C210.235 15.7798 208.963 18.2003 211.425 20.4881C213.547 22.4595 216.873 23.7202 221.044 24.1335C222.664 24.2939 226.927 24.196 228.821 23.9549C231.76 23.5808 234.271 23.0372 237.163 22.1493C239.094 21.5564 239.771 21.2769 239.96 20.9952C240.119 20.7576 239.788 20.3812 239.198 20.1303C237.723 19.5027 235.282 19.7194 234.06 20.5869C230.409 23.1766 224.255 23.7671 219.666 21.9683C218.127 21.3652 216.83 20.368 216.331 19.4034C215.97 18.7044 215.992 17.8459 216.391 17.0621C217.324 15.232 220.063 13.6223 223.345 12.9741C225.458 12.5568 228.476 12.9359 228.476 13.6187C228.476 14.1478 227.236 14.8221 223.15 16.5172C220.016 17.8171 219.352 18.1279 219.053 18.4351C218.783 18.7115 218.952 18.8071 219.708 18.8071C220.941 18.8071 224.15 18.1003 226.995 17.2018C229.695 16.3489 232.923 14.6431 234.521 13.225C236.012 11.9007 236.059 11.2381 234.706 10.6012C233.996 10.2667 232.788 10.0221 231.299 9.91106C229.882 9.80528 229.318 9.80656 227.737 9.91913ZM97.5502 10.6444C97.0493 10.9527 96.3769 11.7093 96.1445 12.226C95.5761 13.4905 96.5836 14.6342 99.4305 15.9566C100.509 16.4573 102.765 17.3446 104.474 17.9403C105.462 18.2847 105.489 18.301 105.165 18.3651C104.98 18.4017 102.874 18.6625 100.485 18.9445C98.096 19.2265 95.9746 19.4983 95.7709 19.5485C95.2187 19.6848 95.053 19.9846 95.0671 20.8217C95.0802 21.6033 95.4029 22.6221 95.9248 23.5296C96.2034 24.0139 96.2861 24.0878 96.635 24.1637C98.2122 24.5073 104.593 22.7157 109.725 20.4881L110.673 20.0768L112.243 20.5385C119.415 22.6483 128.543 24.5291 130.371 24.2743C131.171 24.1629 131.598 23.5775 131.113 23.2588C130.841 23.0799 130.715 23.0469 126.547 22.0599C121.186 20.7905 116.86 19.5905 114.224 18.6417L113.746 18.47L114.878 17.8135C117.699 16.1769 122.042 13.01 122.66 12.1392C123.021 11.6308 122.803 11.0088 122.264 11.0088C122.143 11.0088 121.791 11.167 121.482 11.3605C119.892 12.356 116.582 14.0874 114.59 14.9664C112.51 15.8842 109.923 16.7894 109.384 16.7882C108.857 16.787 103.132 13.4667 100.993 11.9215C99.4224 10.7875 98.6847 10.3666 98.2671 10.3666C98.121 10.3666 97.7985 10.4916 97.5502 10.6444ZM198.796 10.8647C197.423 11.2638 195.106 12.544 188.05 16.8023C183.11 19.7836 181.566 20.6551 179.659 21.5388C177.675 22.4581 175.724 23.054 173.854 23.3118C173.403 23.374 172.994 23.4867 172.867 23.584C172.663 23.7398 172.659 23.7661 172.799 24.0079C173.05 24.438 173.509 24.5867 174.587 24.5868C176.293 24.587 178.925 24.0825 180.843 23.3878C182.418 22.8172 186.787 20.7377 190.37 18.8534C194.415 16.7256 195.633 16.1465 196.062 16.1465C196.97 16.1465 197.65 16.869 199.599 19.908C202.24 24.0249 203.131 24.6734 204.873 23.7487C205.446 23.445 207.657 21.4974 208.092 20.9146C208.447 20.4378 208.455 19.945 208.113 19.4654C207.975 19.2719 207.325 18.7108 206.669 18.2184C205.079 17.0263 204.62 16.5356 202.977 14.27C201.528 12.2725 200.565 11.2109 199.93 10.9097C199.502 10.7068 199.359 10.7012 198.796 10.8647ZM190.765 31.3347C190.765 31.6491 191.087 32.0381 191.487 32.207C191.991 32.4196 193.273 32.4488 193.762 32.2587C194.159 32.1045 194.516 31.7028 194.516 31.4095C194.516 31.2035 194.483 31.1925 193.871 31.1925C193.347 31.1925 193.214 31.2226 193.163 31.3531C193.013 31.7292 192.432 31.7701 192.187 31.4219C192.042 31.2169 191.958 31.1925 191.395 31.1925C190.891 31.1925 190.765 31.2212 190.765 31.3347ZM14.6224 33.0614C13.2609 33.5328 12.5003 34.9774 12.7742 36.5711C12.9443 37.5605 13.3683 38.1689 14.1786 38.5861C14.6495 38.8286 14.7838 38.8532 15.6351 38.8529C16.4072 38.8527 16.6428 38.8178 16.9679 38.6549C17.4847 38.3961 17.8472 38.0321 18.0951 37.5229C18.3729 36.9527 18.3646 36.6972 18.0683 36.6972C17.9405 36.6972 17.571 36.6714 17.2472 36.64L16.6585 36.5828L16.4837 37.008C16.2934 37.4711 16.0982 37.6146 15.6588 37.6146C15.0796 37.6146 14.7463 37.0109 14.7473 35.9639C14.7484 34.6301 15.2562 33.9851 16.0749 34.2771C16.2848 34.3519 16.5236 34.7895 16.5236 35.0991C16.5236 35.3322 16.5429 35.342 16.8938 35.2882C17.0975 35.2569 17.4973 35.2309 17.7823 35.2303C18.2821 35.2293 18.3005 35.2203 18.2984 34.977C18.2956 34.6385 17.9556 33.9594 17.6284 33.6383C17.1686 33.1871 16.6535 32.999 15.7832 32.9643C15.2704 32.9439 14.8634 32.978 14.6224 33.0614ZM132.194 33.0626C130.803 33.5439 130.167 34.5863 130.268 36.2183C130.373 37.8941 131.476 38.8991 133.211 38.8991C134.994 38.8991 136.053 37.9046 136.151 36.1377C136.229 34.7397 135.747 33.7925 134.689 33.2621C134.247 33.0404 134.01 32.987 133.36 32.9626C132.847 32.9433 132.437 32.9785 132.194 33.0626ZM21.6571 33.0696C21.6571 33.0963 22.1569 34.0502 22.7677 35.1895L23.8783 37.2608L23.6326 37.4473C23.4349 37.5972 23.2852 37.6259 22.8675 37.5937L22.3481 37.5536V38.1707C22.3481 38.8825 22.368 38.8991 23.2206 38.8991C24.2995 38.8991 24.809 38.6159 25.2845 37.7523C25.4233 37.5 25.9923 36.3337 26.5487 35.1605L27.5604 33.0274H26.7296H25.8989L25.752 33.3256C25.6712 33.4896 25.4354 34.0087 25.2279 34.4793L24.8506 35.3347L24.2934 34.2041L23.7363 33.0733L22.6967 33.0472C22.1249 33.0329 21.6571 33.043 21.6571 33.0696ZM31.1342 35.9174V38.8073H32.072H33.0099V36.5596V34.3118H33.7009H34.392V36.5596V38.8073H35.3792H36.3664V35.9174V33.0274H33.7503H31.1342V35.9174ZM40.5126 35.9174V38.8073H42.8325H45.1524V38.1192V37.4312H43.8197H42.487V36.9724V36.5137H43.5729H44.6588V35.8715V35.2293H43.5729H42.487V34.7706V34.3118H43.8197H45.1524V33.6696V33.0274H42.8325H40.5126V35.9174ZM49.1012 35.9104V38.8073H50.0391H50.9769V37.7523V36.6972H51.8542C52.6204 36.6972 52.7974 36.6651 53.2537 36.4436C53.9327 36.114 54.2347 35.6216 54.2347 34.8442C54.2347 34.1129 53.9766 33.6604 53.3711 33.3295C52.908 33.0766 52.8774 33.0729 51.0016 33.0434L49.1012 33.0134V35.9104ZM58.0848 35.9174V38.8073H58.8252H59.5656L59.5718 36.766C59.5755 35.5656 59.6123 34.8033 59.6611 34.9155C59.7068 35.0204 59.9794 35.939 60.2669 36.9568L60.7895 38.8073H61.3895H61.9895L62.5208 36.8578C62.813 35.7855 63.0894 34.8689 63.1351 34.821C63.1808 34.773 63.2182 35.6504 63.2182 36.7706V38.8073H64.1067H64.9952V35.9174V33.0274H63.7334H62.4717L62.034 34.5398C61.7932 35.3717 61.5692 36.0219 61.536 35.9848C61.503 35.9477 61.2827 35.2672 61.0466 34.4724L60.6173 33.0274H59.3511H58.0848V35.9174ZM69.7351 35.5275C69.2834 36.9025 68.856 38.203 68.7855 38.4174L68.6573 38.8073H69.4317H70.206L70.3443 38.2798L70.4827 37.7523L71.3773 37.726L72.272 37.6999L72.3984 38.2536L72.5249 38.8073H73.5092C74.2554 38.8073 74.4823 38.7796 74.4472 38.6926C74.4219 38.6296 73.9881 37.329 73.4834 35.8027L72.5658 33.0274H71.5611H70.5565L69.7351 35.5275ZM78.2237 35.9104V38.8073H79.1615H80.0993V37.7523V36.6972H80.9766C81.7428 36.6972 81.9198 36.6651 82.3761 36.4436C83.0551 36.114 83.3571 35.6216 83.3571 34.8442C83.3571 34.1129 83.0991 33.6604 82.4935 33.3295C82.0304 33.0766 81.9998 33.0729 80.124 33.0434L78.2237 33.0134V35.9104ZM87.2072 35.9174V38.8073H88.1944H89.1816V37.6605V36.5137H89.5201C90.0584 36.5137 90.1402 36.6267 90.415 37.7512C90.6673 38.7832 90.6987 38.8073 91.7915 38.8073H92.7185L92.5312 38.3715C92.4281 38.1318 92.2549 37.6468 92.1462 37.2935C91.891 36.4644 91.6467 36.1051 91.1905 35.8876C90.8512 35.7258 90.8388 35.7065 91.0356 35.6486C91.3614 35.5524 91.6041 35.1663 91.8467 34.3577C91.9679 33.954 92.1285 33.5123 92.2038 33.3761C92.279 33.2397 92.3406 33.1039 92.3406 33.0743C92.3406 33.0446 91.9535 33.0322 91.4803 33.0468C90.4855 33.0774 90.5152 33.0514 90.1641 34.2027C89.9479 34.9112 89.7047 35.2293 89.379 35.2293C89.1926 35.2293 89.1816 35.1681 89.1816 34.1284V33.0274H88.1944H87.2072V35.9174ZM96.3882 35.9174V38.8073H98.7081H101.028V38.1192V37.4312H99.6459H98.2638V36.9724V36.5137H99.3991H100.534V35.8715V35.2293H99.3937H98.253L98.2831 34.7935L98.3132 34.3577L99.6706 34.3322L101.028 34.3067V33.6671V33.0274H98.7081H96.3882V35.9174ZM104.384 33.6652V34.3031L105.001 34.3304L105.618 34.3577L105.645 36.5825L105.671 38.8073H106.606H107.54L107.566 36.5825L107.593 34.3577L108.21 34.3304L108.827 34.3031V33.6652V33.0274H106.606H104.384V33.6652ZM121.721 34.1972C121.643 35.5681 121.523 36.2657 121.251 36.9408C121.087 37.3484 121.014 37.4312 120.814 37.4312H120.575V38.7156V40H121.414H122.253V39.4037V38.8073H123.586H124.918V39.4037V40H125.757H126.596V38.7156V37.4312H126.35H126.103V35.2293V33.0274H123.945H121.788L121.721 34.1972ZM140.121 35.9174V38.8073H140.86H141.598L141.625 36.766L141.651 34.7247L142.233 36.766L142.816 38.8073L143.418 38.8071L144.021 38.807L144.564 36.8202L145.107 34.8335L145.133 36.8204L145.16 38.8073H146.096H147.032V35.9174V33.0274H145.764H144.496L144.062 34.5377C143.823 35.3684 143.598 36.0186 143.562 35.9827C143.526 35.9467 143.307 35.2672 143.074 34.4724L142.652 33.0274H141.387H140.121V35.9174ZM152.523 33.188C152.399 33.5897 150.751 38.5906 150.709 38.6926C150.675 38.7783 150.86 38.8073 151.443 38.8073H152.223L152.367 38.2798L152.511 37.7523H153.394H154.278L154.417 38.2798L154.556 38.8073H155.543C156.393 38.8073 156.522 38.7877 156.471 38.6652C156.439 38.5871 156.002 37.2867 155.5 35.7753L154.588 33.0274H153.581C152.706 33.0274 152.567 33.0486 152.523 33.188ZM160.26 35.9174V38.8073H164.061H167.861V35.9174V33.0274H166.924H165.986V35.2293V37.4312H165.492H164.999V35.2293V33.0274H164.061H163.123V35.2293V37.4312H162.629H162.136V35.2293V33.0274H161.198H160.26V35.9174ZM172.008 35.9174V38.8073H172.995H173.982V37.6605V36.5137H174.673H175.364V37.6605V38.8073H176.351H177.339V35.9174V33.0274H176.351H175.364V34.1284V35.2293H174.673H173.982V34.1284V33.0274H172.995H172.008V35.9174ZM181.485 35.9174V38.8073H183.805H186.125V38.1192V37.4312H184.792H183.459V36.9724V36.5137H184.545H185.631V35.8715V35.2293H184.545H183.459V34.7706V34.3118H184.792H186.125V33.6696V33.0274H183.805H181.485V35.9174ZM190.074 35.9174V38.8073H191.011H191.949V38.5504C191.949 38.4092 191.988 38.2543 192.037 38.2064C192.085 38.1584 192.399 37.6135 192.734 36.9954C193.07 36.3772 193.353 35.8714 193.363 35.8714C193.373 35.8713 193.367 36.5319 193.351 37.3393L193.322 38.8073H194.314H195.306V35.9174V33.0274H194.318C193.335 33.0274 193.331 33.0283 193.331 33.2536C193.331 33.378 193.021 34.0282 192.642 34.6986L191.952 35.9174L191.951 34.4724L191.949 33.0274H191.011H190.074V35.9174ZM208.041 35.9174V38.8073H210.36H212.68V38.1192V37.4312H211.298H209.916V36.9724V36.5137H211.052H212.187V35.8715V35.2293H211.046H209.905L209.936 34.7935L209.966 34.3577L211.323 34.3322L212.68 34.3067V33.6671V33.0274H210.36H208.041V35.9174ZM217.188 34.3348C217.094 36.2522 216.743 37.4312 216.265 37.4312C216.037 37.4312 216.037 37.4341 216.037 38.7156V40H216.871H217.706L217.735 39.4266L217.764 38.8532L219.073 38.8276L220.381 38.802V39.401V40H221.22H222.059V38.7156V37.4312H221.812H221.565V35.2293V33.0274H219.409H217.252L217.188 34.3348ZM226.008 35.9242V38.8208L228.007 38.7912C229.889 38.7632 230.027 38.7492 230.369 38.5515C230.859 38.2686 231.151 37.6921 231.154 37.0024C231.159 35.7011 230.552 35.2349 228.846 35.2313L227.883 35.2293V34.1284V33.0274H226.945H226.008V35.9242ZM231.635 35.9174V38.8073H232.622H233.609V35.9174V33.0274H232.622H231.635V35.9174ZM133.819 34.4953C134.1 34.8475 134.243 35.7825 134.12 36.4699C134 37.1439 133.779 37.5021 133.432 37.583C132.734 37.7458 132.3 37.174 132.283 36.0699C132.27 35.2047 132.364 34.7707 132.632 34.454C132.804 34.2507 132.904 34.2151 133.237 34.2383C133.526 34.2584 133.686 34.329 133.819 34.4953ZM52.2039 34.456C52.4061 34.644 52.402 35.0331 52.1956 35.245C52.0762 35.3676 51.8904 35.4128 51.5046 35.4128H50.9769V34.8623V34.3118H51.5129C51.8684 34.3118 52.101 34.3604 52.2039 34.456ZM81.3263 34.456C81.5285 34.644 81.5244 35.0331 81.318 35.245C81.1986 35.3676 81.0128 35.4128 80.627 35.4128H80.0993V34.8623V34.3118H80.6353C80.9908 34.3118 81.2234 34.3604 81.3263 34.456ZM124.128 35.8715V37.4312H123.378C122.699 37.4312 122.634 37.4156 122.702 37.2706C122.934 36.7785 123.131 35.8265 123.136 35.1758C123.139 34.7679 123.171 34.4066 123.207 34.373C123.243 34.3394 123.465 34.3118 123.701 34.3118H124.128V35.8715ZM219.667 35.8944L219.694 37.4312H218.907H218.121L218.308 36.9263C218.507 36.388 218.702 35.2692 218.702 34.6672V34.3018L219.171 34.3297L219.64 34.3577L219.667 35.8944ZM71.6473 35.6305L71.8747 36.422H71.3966C71.1336 36.422 70.9184 36.3999 70.9184 36.3728C70.9184 36.2256 71.3456 34.77 71.3796 34.8016C71.4017 34.8222 71.5222 35.1953 71.6473 35.6305ZM153.8 36.0971L153.865 36.422H153.41C153.137 36.422 152.955 36.3804 152.955 36.3183C152.955 36.2613 153.053 35.8806 153.174 35.4723L153.393 34.7299L153.563 35.251C153.657 35.5376 153.764 35.9184 153.8 36.0971ZM229.114 36.6029C229.288 36.7375 229.312 37.0878 229.163 37.3455C229.08 37.4904 228.953 37.5229 228.472 37.5229H227.883V37.0336C227.883 36.7645 227.917 36.5128 227.957 36.4743C228.067 36.3708 228.939 36.4677 229.114 36.6029Z" fill="#0C54A0"/>
</svg>
